<?xml version="1.0" encoding="utf-8"?>
<!-- Generator: Adobe Illustrator 23.1.1, SVG Export Plug-In . SVG Version: 6.00 Build 0)  -->
<svg version="1.1" xmlns="http://www.w3.org/2000/svg" xmlns:xlink="http://www.w3.org/1999/xlink" x="0px" y="0px"
	 viewBox="0 0 1920 1080" style="enable-background:new 0 0 1920 1080;" xml:space="preserve">
<style type="text/css">
	.st0{clip-path:url(#SVGID_2_);}
	.st1{clip-path:url(#SVGID_3_);}
	.st2{clip-path:url(#SVGID_4_);}
	.st3{clip-path:url(#SVGID_5_);}
	.st4{fill:#333F48;}
	.st5{fill:#21A038;}
	.st6{fill:#FFFFFF;}
	.st7{clip-path:url(#SVGID_6_);}
	.st8{clip-path:url(#SVGID_8_);}
	.st9{clip-path:url(#SVGID_9_);}
	.st10{fill:#A0E720;}
	.st11{fill:#FAED00;}
	.st12{fill:#00FFC9;}
	.st13{fill:#00ACF1;}
	.st14{fill:#0087CD;}
	.st15{clip-path:url(#SVGID_10_);}
	.st16{opacity:0.2;}
	.st17{clip-path:url(#SVGID_44_);}
	.st18{clip-path:url(#SVGID_45_);}
	.st19{clip-path:url(#SVGID_46_);}
	.st20{clip-path:url(#SVGID_48_);}
	.st21{clip-path:url(#SVGID_49_);}
	.st22{clip-path:url(#SVGID_50_);}
	.st23{clip-path:url(#SVGID_51_);}
	.st24{clip-path:url(#SVGID_52_);}
	.st25{clip-path:url(#SVGID_53_);}
	.st26{clip-path:url(#SVGID_54_);}
	.st27{clip-path:url(#SVGID_55_);}
	.st28{fill:#0FA8E0;}
	.st29{fill:#A3CD39;}
	.st30{fill:#F2E913;}
	.st31{fill:#0C8ACB;}
	.st32{clip-path:url(#SVGID_56_);}
	.st33{clip-path:url(#SVGID_57_);}
	.st34{fill:#0291EB;}
	.st35{fill:#0099F9;}
	.st36{fill:url(#SVGID_58_);}
	.st37{fill:url(#SVGID_59_);}
	.st38{fill:url(#SVGID_60_);}
	.st39{fill:url(#SVGID_61_);}
	.st40{fill:url(#SVGID_62_);}
	.st41{fill:url(#SVGID_63_);}
	.st42{fill:none;}
	.st43{fill:url(#SVGID_64_);}
	.st44{fill:url(#SVGID_65_);}
	.st45{fill:url(#SVGID_66_);}
	.st46{fill:url(#SVGID_67_);}
	.st47{fill:url(#SVGID_68_);}
	.st48{fill:url(#SVGID_69_);}
	.st49{fill:url(#SVGID_70_);}
	.st50{fill:url(#SVGID_71_);}
	.st51{fill:url(#SVGID_72_);}
	.st52{fill:url(#SVGID_73_);}
	.st53{fill:url(#SVGID_74_);}
	.st54{fill:url(#SVGID_75_);}
	.st55{clip-path:url(#SVGID_78_);}
	.st56{clip-path:url(#SVGID_80_);}
	.st57{fill:url(#SVGID_81_);}
	.st58{fill:url(#SVGID_82_);}
	.st59{fill:url(#SVGID_84_);}
	.st60{fill:url(#SVGID_85_);}
	.st61{fill:url(#SVGID_86_);}
	.st62{fill:url(#SVGID_87_);}
	.st63{fill:url(#SVGID_88_);}
	.st64{fill:url(#SVGID_89_);}
	.st65{fill:url(#SVGID_90_);}
	.st66{fill:url(#SVGID_92_);}
	.st67{fill:url(#SVGID_93_);}
	.st68{fill:url(#SVGID_94_);}
	.st69{fill:url(#SVGID_96_);}
	.st70{fill:url(#SVGID_97_);}
	.st71{fill:url(#SVGID_98_);}
	.st72{fill:url(#SVGID_99_);}
	.st73{fill:url(#SVGID_100_);}
	.st74{fill:url(#SVGID_102_);}
	.st75{fill:url(#SVGID_103_);}
	.st76{fill:url(#SVGID_104_);}
	.st77{fill:url(#SVGID_105_);}
	.st78{fill:url(#SVGID_106_);}
	.st79{fill:url(#SVGID_108_);}
	.st80{fill:url(#SVGID_109_);}
	.st81{fill:none;stroke:#231F20;stroke-width:0.5;stroke-miterlimit:10;}
	.st82{fill:#12A9E1;}
	.st83{fill:#A4CD39;}
	.st84{fill:#F2EA15;}
	.st85{fill:#0B8BCC;}
	.st86{fill:none;stroke:#FF00FF;stroke-width:0.5;stroke-miterlimit:10;}
	.st87{fill:#FF00FF;}
	.st88{clip-path:url(#SVGID_110_);}
</style>
<g id="Layer_2">
</g>
<g id="Layer_1">
	<g>
		<g>
			<g>
				<g>
					<g>
						<path class="st6" d="M555.4,532.71l-57.52-36.06v43.38l57.52,36.06l137.69-101.47c-4.87-10.74-10.97-20.81-18.11-30.04
							L555.4,532.71z"/>
					</g>
				</g>
				<g>
					<defs>
						<path id="SVGID_26_" d="M706.51,536.96c0-9.24-0.83-18.29-2.42-27.07l-32.53,23.97c0.03,1.03,0.04,2.06,0.04,3.1
							c0,64.07-52.13,116.2-116.2,116.2c-64.07,0-116.2-52.13-116.2-116.2s52.13-116.2,116.2-116.2c24.28,0,46.85,7.49,65.51,20.28
							l29.39-21.66c-25.94-20.96-58.95-33.53-94.9-33.53c-83.46,0-151.11,67.65-151.11,151.11s67.65,151.11,151.11,151.11
							S706.51,620.42,706.51,536.96z"/>
					</defs>
					<use xlink:href="#SVGID_26_"  style="overflow:visible;fill:#FFFFFF;"/>
					<clipPath id="SVGID_2_">
						<use xlink:href="#SVGID_26_"  style="overflow:visible;"/>
					</clipPath>
				</g>
			</g>
		</g>
		<g>
			<g>
				<polygon class="st6" points="1284.49,476.32 1325.57,446.04 1188.07,446.04 1188.07,627.89 1325.57,627.89 1325.57,597.61 
					1227.31,597.61 1227.31,551.06 1311.12,551.06 1311.12,520.78 1227.31,520.78 1227.31,476.32 				"/>
				<g>
					<path class="st6" d="M1084.29,516.93h-47.75v-40.61h76.23l41.08-30.28H997.3v181.85h81.93c45.95,0,72.31-20.82,72.31-57.13
						C1151.54,536.05,1127.66,516.93,1084.29,516.93z M1077.46,597.61h-40.92v-50.41h40.92c24.91,0,36.51,8.43,36.51,25.2
						C1113.96,589.54,1101.68,597.61,1077.46,597.61z"/>
				</g>
				<path class="st6" d="M1436.96,446.04h-74.86v181.85h39.24v-51.51h35.62c47.77,0,77.45-25.12,77.45-65.26
					C1514.41,470.98,1484.74,446.04,1436.96,446.04z M1436.12,546.1h-34.78v-69.78h34.78c25.14,0,38.99,12.39,38.99,34.89
					S1461.27,546.1,1436.12,546.1z"/>
				<g>
					<path class="st6" d="M929.94,588.52c-10.06,5.55-21.78,8.49-33.87,8.49c-35.38,0-61.05-25.25-61.05-60.04
						c0-34.79,25.68-60.04,61.05-60.04c13.38,0,25.38,3.76,35.69,11.17l28.14-20.74h0l-1.86-1.63
						c-16.43-14.44-38.39-22.07-63.49-22.07c-27.23,0-51.95,9.18-69.59,25.86c-17.75,16.77-27.52,40.37-27.52,66.45
						c0,26.2,9.74,50.15,27.42,67.43c17.74,17.34,42.4,26.89,69.44,26.89c28.29,0,52.99-9.86,69.73-27.81
						c-12.92-9.52-25.39-18.71-25.39-18.71L929.94,588.52z"/>
				</g>
			</g>
		</g>
	</g>
</g>
<g id="Layer_3">
</g>
</svg>
